# xmcd CD database file
# Copyright (C) 1995-1998 Ti Kan
#
# Track frame offsets:
#	150
#	9415
#	27767
#	41535
#	57945
#	67327
#	79645
#	93267
#	103760
#	113922
#	126705
#	137070
#	146570
#	160292
#	173085
#	180750
#	191675
#	200735
#	214655
#	228145
#	238767
#	249685
#	261640
#	275412
#	288000
#	301190
#	313927
#	325137
#	335532
#
# Disc length: 4599 seconds
#
# Revision: 2
# Processed by: cddbd v1.4PL0 Copyright (c) Steve Scherf et al.
# Submitted via: CDex 1.30Release
#
DISCID=ac11f51d
DTITLE=Hank Snow - The Singing Ranger Vol. 3 [CD12 of 12)
DYEAR=1992
DGENRE=Country
TTITLE0=Miami Snow 1969
TTITLE1=Springtime In The Rockies 1969
TTITLE2=Blossoms In The Springtime 1969
TTITLE3=At The First Fall Of Snow 1969
TTITLE4=Snow Bird 1969
TTITLE5=The Seasons 1969
TTITLE6=Roses In The Snow 1969
TTITLE7=Flying South 1969
TTITLE8=January 1969
TTITLE9=You're As Welcome As The Flowers In May 1969
TTITLE10=Peach Picking Time In Georgia 1969
TTITLE11=All Nite Cafe 1968
TTITLE12=The Tip Of My Fingers 1968
TTITLE13=He Dropped The World In My Hands 1968
TTITLE14=Blue, Blue Day 1969
TTITLE15=It Kinda Reminds Me Of Me 1968
TTITLE16=All The Time 1968
TTITLE17=Blue Side Of Lonesome 1968
TTITLE18=There Goes My Everything 1968
TTITLE19=Once More You're Mine Again 1968
TTITLE20=A Million And One 1968
TTITLE21=Green Green Grass Of Home 1968
TTITLE22=A Wound Time Can't Erase 1968
TTITLE23=I Just Wanted To Know (How The Wind Was Blowing) 1968
TTITLE24=Cure For The Blues 1992
TTITLE25=That's When The Hurtin' Sets In 1969
TTITLE26=Rome Wasn't Build In A Day 1969
TTITLE27=The Name Of The Game Was Love 1969
TTITLE28=Adios Amigo 1967
EXTD=YEAR: 1992 ID3G:   2
EXTT0=
EXTT1=
EXTT2=
EXTT3=
EXTT4=
EXTT5=
EXTT6=
EXTT7=
EXTT8=
EXTT9=
EXTT10=
EXTT11=
EXTT12=
EXTT13=
EXTT14=
EXTT15=
EXTT16=
EXTT17=
EXTT18=
EXTT19=
EXTT20=
EXTT21=
EXTT22=
EXTT23=
EXTT24=
EXTT25=
EXTT26=
EXTT27=
EXTT28=
PLAYORDER=
